<svg width="512" height="512" viewBox="0 0 512 512" xmlns="http://www.w3.org/2000/svg">
  <!-- Orange gradient background -->
  <defs>
    <linearGradient id="orangeGradient" x1="0%" y1="0%" x2="100%" y2="100%">
      <stop offset="0%" style="stop-color:#FF6B35;stop-opacity:1" />
      <stop offset="100%" style="stop-color:#F7931E;stop-opacity:1" />
    </linearGradient>
    <filter id="shadow">
      <feDropShadow dx="0" dy="4" stdDeviation="4" flood-opacity="0.2"/>
    </filter>
  </defs>
  
  <!-- Rounded square background -->
  <rect x="20" y="20" width="472" height="472" rx="80" ry="80" fill="url(#orangeGradient)" filter="url(#shadow)"/>
  
  <!-- Task icon design -->
  <g transform="translate(256, 256)">
    <!-- Clipboard base -->
    <rect x="-100" y="-140" width="200" height="260" rx="20" ry="20" fill="white" opacity="0.95"/>
    
    <!-- Clipboard clip -->
    <rect x="-40" y="-160" width="80" height="40" rx="10" ry="10" fill="#FF6B35"/>
    <circle cx="0" cy="-140" r="15" fill="white"/>
    
    <!-- Task lines -->
    <rect x="-70" y="-80" width="15" height="15" rx="3" ry="3" fill="#FF6B35"/>
    <rect x="-40" y="-80" width="90" height="8" rx="4" ry="4" fill="#E0E0E0"/>
    
    <rect x="-70" y="-40" width="15" height="15" rx="3" ry="3" fill="#FF6B35"/>
    <rect x="-40" y="-40" width="90" height="8" rx="4" ry="4" fill="#E0E0E0"/>
    
    <rect x="-70" y="0" width="15" height="15" rx="3" ry="3" fill="#FF6B35"/>
    <rect x="-40" y="0" width="90" height="8" rx="4" ry="4" fill="#E0E0E0"/>
    
    <!-- Checkmark on last item -->
    <path d="M -65 45 L -58 52 L -45 39" stroke="#4CAF50" stroke-width="6" fill="none" stroke-linecap="round" stroke-linejoin="round"/>
    <rect x="-40" y="40" width="90" height="8" rx="4" ry="4" fill="#E0E0E0"/>
    
    <!-- Settings gear -->
    <g transform="translate(60, 60) scale(0.8)">
      <path d="M 0 -30 L 8 -26 L 8 -18 L 0 -14 L -8 -18 L -8 -26 Z
               M 26 -15 L 26 -6 L 20 -2 L 13 -6 L 13 -14 L 20 -18 Z
               M 26 15 L 20 18 L 13 14 L 13 6 L 20 2 L 26 6 Z
               M 0 30 L -8 26 L -8 18 L 0 14 L 8 18 L 8 26 Z
               M -26 15 L -26 6 L -20 2 L -13 6 L -13 14 L -20 18 Z
               M -26 -15 L -20 -18 L -13 -14 L -13 -6 L -20 -2 L -26 -6 Z"
            fill="#FF6B35" opacity="0.8"/>
      <circle cx="0" cy="0" r="15" fill="#FF6B35"/>
      <circle cx="0" cy="0" r="8" fill="white"/>
    </g>
  </g>
</svg>